<svg xmlns="http://www.w3.org/2000/svg" version="1.1" xmlns:xlink="http://www.w3.org/1999/xlink" xmlns:svgjs="http://svgjs.dev/svgjs" width="1440" height="560" preserveAspectRatio="none" viewBox="0 0 1440 560"><g mask="url(&quot;#SvgjsMask1000&quot;)" fill="none"><rect width="1440" height="560" x="0" y="0" fill="#0e2a47"></rect><path d="M1029.799,202.979C1053.203,202.295,1075.979,193.47,1088.39,173.616C1101.568,152.535,1104.232,125.521,1091.608,104.104C1079.153,82.974,1054.276,72.631,1029.799,74.217C1007.794,75.643,992.212,92.643,980.465,111.305C967.577,131.779,953.494,155.92,964.959,177.224C976.771,199.173,1004.884,203.707,1029.799,202.979" fill="rgba(28, 83, 142, 0.4)" class="triangle-float2"></path><path d="M1137.918514284188 90.56789905236428L1257.9600995486967 86.37595452391831 1253.7681550202508-33.66563074059047 1133.726569755742-29.4736862121445z" fill="rgba(28, 83, 142, 0.4)" class="triangle-float1"></path><path d="M1198.13,443.945C1215.483,443.606,1231.628,434.805,1240.254,419.745C1248.83,404.772,1248.161,386.462,1239.653,371.451C1231.02,356.219,1215.638,345.34,1198.13,345.425C1180.754,345.51,1166.163,356.905,1157.302,371.852C1148.233,387.149,1144.296,405.972,1153.059,421.446C1161.928,437.106,1180.136,444.296,1198.13,443.945" fill="rgba(28, 83, 142, 0.4)" class="triangle-float2"></path><path d="M1286.704,477.536C1324.504,476.95,1358.102,455.78,1377.631,423.41C1397.888,389.833,1404.804,348.008,1385.41,313.925C1365.835,279.523,1326.255,265.164,1286.704,263.613C1243.637,261.925,1195.509,268.496,1173.615,305.621C1151.493,343.134,1166.824,389.923,1190.758,426.307C1212.113,458.771,1247.851,478.138,1286.704,477.536" fill="rgba(28, 83, 142, 0.4)" class="triangle-float1"></path><path d="M1124.3681915926684 511.45921878275243L1134.7407070546626 426.9818595307485 1039.8908323406645 501.0867033207582z" fill="rgba(28, 83, 142, 0.4)" class="triangle-float1"></path><path d="M1110.991,440.005C1160.034,441.531,1210.557,428.893,1238.269,388.401C1269.715,342.452,1282.2,280.314,1252.518,233.206C1224.128,188.147,1164.247,186.755,1110.991,186.396C1056.809,186.031,993.57,184.561,966.124,231.278C938.488,278.318,965.62,336.067,996.727,380.887C1022.933,418.646,1065.051,438.576,1110.991,440.005" fill="rgba(28, 83, 142, 0.4)" class="triangle-float3"></path></g><defs><mask id="SvgjsMask1000"><rect width="1440" height="560" fill="#ffffff"></rect></mask><style>
                @keyframes float1 {
                    0%{transform: translate(0, 0)}
                    50%{transform: translate(-10px, 0)}
                    100%{transform: translate(0, 0)}
                }

                .triangle-float1 {
                    animation: float1 5s infinite;
                }

                @keyframes float2 {
                    0%{transform: translate(0, 0)}
                    50%{transform: translate(-5px, -5px)}
                    100%{transform: translate(0, 0)}
                }

                .triangle-float2 {
                    animation: float2 4s infinite;
                }

                @keyframes float3 {
                    0%{transform: translate(0, 0)}
                    50%{transform: translate(0, -10px)}
                    100%{transform: translate(0, 0)}
                }

                .triangle-float3 {
                    animation: float3 6s infinite;
                }
            </style></defs></svg>